<svg width="32" height="32" viewBox="0 0 32 32" fill="none" xmlns="http://www.w3.org/2000/svg">
<path d="M24.6956 8.42055C24.5368 8.42055 24.3845 8.35747 24.2722 8.24518C24.1599 8.13289 24.0968 7.98059 24.0968 7.82179C24.0968 7.66299 24.1599 7.51069 24.2722 7.3984C24.3845 7.28611 24.5368 7.22302 24.6956 7.22302M24.6956 8.42055C24.8544 8.42055 25.0067 8.35747 25.119 8.24518C25.2312 8.13289 25.2943 7.98059 25.2943 7.82179C25.2943 7.66299 25.2312 7.51069 25.119 7.3984C25.0067 7.28611 24.8544 7.22302 24.6956 7.22302" stroke="white" stroke-width="2.39506" stroke-linecap="round" stroke-linejoin="round"/>
<path d="M2.0024 7.91036C2.0024 6.27596 2.65166 4.70851 3.80735 3.55282C4.96304 2.39712 6.5305 1.74786 8.16489 1.74786H24.5998C25.4091 1.74786 26.2104 1.90726 26.9581 2.21696C27.7058 2.52665 28.3851 2.98058 28.9574 3.55282C29.5296 4.12506 29.9835 4.80441 30.2932 5.55208C30.6029 6.29974 30.7623 7.10109 30.7623 7.91036V24.3453C30.7623 25.9797 30.113 27.5471 28.9574 28.7028C27.8017 29.8585 26.2342 30.5078 24.5998 30.5078H8.1625C6.5281 30.5078 4.96065 29.8585 3.80495 28.7028C2.64926 27.5471 2 25.9797 2 24.3453V7.90797L2.0024 7.91036Z" stroke="white" stroke-width="2.39506" stroke-linecap="round" stroke-linejoin="round"/>
<path d="M10.2751 16.1279C10.2751 16.9299 10.4331 17.7241 10.74 18.4651C11.0469 19.206 11.4968 19.8793 12.0639 20.4464C12.631 21.0136 13.3043 21.4634 14.0453 21.7704C14.7863 22.0773 15.5805 22.2353 16.3825 22.2353C17.1845 22.2353 17.9787 22.0773 18.7197 21.7704C19.4607 21.4634 20.134 21.0136 20.7011 20.4464C21.2682 19.8793 21.7181 19.206 22.025 18.4651C22.3319 17.7241 22.4899 16.9299 22.4899 16.1279C22.4899 14.5081 21.8464 12.9546 20.7011 11.8093C19.5557 10.6639 18.0023 10.0204 16.3825 10.0204C14.7627 10.0204 13.2093 10.6639 12.0639 11.8093C10.9185 12.9546 10.2751 14.5081 10.2751 16.1279Z" stroke="white" stroke-width="2.39506" stroke-linecap="round" stroke-linejoin="round"/>
</svg>
