<svg width="35" height="35" viewBox="0 0 35 35" fill="none" xmlns="http://www.w3.org/2000/svg">
<path d="M25.3399 20.5534C25.4769 19.423 25.5797 18.2925 25.5797 17.1278C25.5797 15.9631 25.4769 14.8327 25.3399 13.7023H31.1291C31.4031 14.7984 31.5744 15.946 31.5744 17.1278C31.5744 18.3096 31.4031 19.4572 31.1291 20.5534M22.3083 30.0765C23.3359 28.1753 24.1238 26.1199 24.6719 23.979H29.7246C28.0652 26.8363 25.4326 29.0008 22.3083 30.0765ZM21.8801 20.5534H13.8642C13.693 19.423 13.5902 18.2925 13.5902 17.1278C13.5902 15.9631 13.693 14.8156 13.8642 13.7023H21.8801C22.0342 14.8156 22.1541 15.9631 22.1541 17.1278C22.1541 18.2925 22.0342 19.423 21.8801 20.5534ZM17.8721 30.7616C16.4505 28.7062 15.303 26.4282 14.6007 23.979H21.1436C20.4413 26.4282 19.2938 28.7062 17.8721 30.7616ZM11.021 10.2767H6.01969C7.662 7.41158 10.2927 5.24366 13.4189 4.17919C12.3912 6.08038 11.6205 8.13572 11.021 10.2767ZM6.01969 23.979H11.021C11.6205 26.1199 12.3912 28.1753 13.4189 30.0765C10.2993 29.0003 7.67227 26.8354 6.01969 23.979ZM4.61521 20.5534C4.34117 19.4572 4.16989 18.3096 4.16989 17.1278C4.16989 15.946 4.34117 14.7984 4.61521 13.7023H10.4044C10.2674 14.8327 10.1646 15.9631 10.1646 17.1278C10.1646 18.2925 10.2674 19.423 10.4044 20.5534M17.8721 3.47695C19.2938 5.53229 20.4413 7.82742 21.1436 10.2767H14.6007C15.303 7.82742 16.4505 5.53229 17.8721 3.47695ZM29.7246 10.2767H24.6719C24.1358 8.15534 23.342 6.1076 22.3083 4.17919C25.4598 5.25824 28.0803 7.43348 29.7246 10.2767ZM17.8721 0C8.40046 0 0.744324 7.70752 0.744324 17.1278C0.744324 21.6704 2.54886 26.0269 5.76095 29.239C7.35141 30.8295 9.23957 32.0911 11.3176 32.9519C13.3957 33.8126 15.6229 34.2556 17.8721 34.2556C22.4147 34.2556 26.7713 32.4511 29.9834 29.239C33.1954 26.0269 35 21.6704 35 17.1278C35 14.8786 34.5569 12.6513 33.6962 10.5733C32.8354 8.49525 31.5738 6.60709 29.9834 5.01662C28.3929 3.42616 26.5047 2.16453 24.4267 1.30378C22.3486 0.443024 20.1214 0 17.8721 0Z" fill="white"/>
</svg>
