<svg width="579" height="194" viewBox="0 0 579 194" fill="none" xmlns="http://www.w3.org/2000/svg">
<rect width="577.572" height="193.403" transform="translate(0.531616)" fill="#1F1D2B"/>
<path d="M86.2611 96.7016V154.337L53.3963 173.403L20.5316 154.337V39.0658L53.3963 20L86.2611 39.0658V73.472L57.7783 90.1272V50.4615L49.0144 55.5019V142.942L57.7783 137.901V113.357L86.2611 96.7016Z" fill="white"/>
<path d="M118.756 122.494V134.462L96.8461 147.274V60.7952L122.127 46.1292L147.407 60.7952V134.462L125.497 147.274V118.616L118.756 122.494ZM125.497 93.3301V69.5611L118.756 73.4383V97.2074L125.497 93.3301Z" fill="white"/>
<path d="M186.643 69.5611L179.902 73.4383V134.462L157.992 147.274V60.7952L183.273 46.1292L197.598 54.5579L211.924 46.1292L237.205 60.7952V134.462L215.295 147.274V69.5611L208.553 73.4383V134.462L186.643 147.274V69.5611Z" fill="white"/>
<path d="M269.699 122.494V134.462L247.79 147.274V60.7952L273.07 46.1292L298.351 60.7952V134.462L276.441 147.274V118.616L269.699 122.494ZM276.441 93.3301V69.5611L269.699 73.4383V97.2074L276.441 93.3301Z" fill="white"/>
<path d="M337.587 111.705L330.845 115.582V134.462L308.936 147.274V60.7952L334.216 46.1292L359.497 60.7952V92.993L344.328 101.759L359.497 110.525V134.462L337.587 147.274V111.705ZM330.845 73.4383V91.813L337.587 87.9358V69.5611L330.845 73.4383Z" fill="white"/>
<path d="M395.362 46.1292L420.643 60.7952V132.608L395.362 147.274L370.082 132.608V60.7952L395.362 46.1292ZM391.975 73.4383V123.842L398.716 119.965V69.5611L391.975 73.4383Z" fill="white"/>
<path d="M481.789 95.0159V132.608L456.508 147.274L431.228 132.608V60.7952L456.508 46.1292L481.789 60.7952V80.5185L459.879 93.3301V69.5611L453.138 73.4383V123.842L459.879 119.965V107.828L481.789 95.0159Z" fill="white"/>
<path d="M492.374 36.6552L520.857 20V74.5677L529.62 69.5273V36.6552L558.103 20V85.306L538.384 96.7016L558.103 108.097V156.748L529.62 173.403V118.836L520.857 123.876V156.748L492.374 173.403V36.6552Z" fill="white"/>
</svg>
