<svg width="35" height="35" viewBox="0 0 35 35" fill="none" xmlns="http://www.w3.org/2000/svg">
<path d="M2.23701 0H32.7031C33.7522 0 34.5872 0.834982 34.5872 1.88406V32.3716C34.5872 33.3993 33.7522 34.2556 32.7031 34.2556H23.9679V20.9816H28.4212L29.0849 15.8218H23.9679V12.5247C23.9679 11.026 24.3961 9.99837 26.5371 9.99837H29.2776V5.37386C28.8066 5.30963 27.1794 5.18117 25.2953 5.18117C21.3345 5.18117 18.6369 7.57906 18.6369 12.0109V15.8218H14.1623V20.9816H18.6369V34.2556H2.23701C1.73534 34.2557 1.25389 34.0579 0.897156 33.7051C0.54042 33.3524 0.33718 32.8732 0.331543 32.3716V1.88406C0.331543 0.834982 1.18793 0 2.23701 0Z" fill="white"/>
</svg>
